<?xml version='1.0' encoding='iso-8859-1'?>
<svg version="1.1" xmlns="http://www.w3.org/2000/svg" viewBox="0 0 18.651 18.651" xmlns:xlink="http://www.w3.org/1999/xlink" enable-background="new 0 0 18.651 18.651">
  <g>
    <g>
      <path fill="#020400" fill-rule="evenodd" d="m9.324,4.667c-3.759,0-7.112,1.816-9.324,4.659 2.212,2.842 5.565,4.658 9.324,4.658 3.759,0 7.116-1.816 9.327-4.658-2.212-2.843-5.568-4.659-9.327-4.659zm-6.371,4.659c1.501-1.804 3.78-2.955 6.334-2.962-1.631,0.007-2.95,1.33-2.95,2.962 0,1.632 1.32,2.955 2.95,2.962-2.554-0.008-4.833-1.159-6.334-2.962zm5.075,0c0-0.703 0.568-1.272 1.271-1.272 0.7,0 1.268,0.569 1.268,1.272 0,0.699-0.568,1.271-1.268,1.271-0.702-1.77636e-15-1.271-0.572-1.271-1.271zm1.282,2.963c-0.002,0-0.004,0-0.007,0 1.635-0.002 2.96-1.328 2.96-2.963 0-1.636-1.325-2.961-2.96-2.963 0.002,0 0.004,0 0.007,0 2.564,0 4.851,1.154 6.357,2.963-1.506,1.809-3.793,2.963-6.357,2.963z"/>
    </g>
  </g>
</svg>
